<?xml version="1.0" encoding="UTF-8"?>
<svg width="35px" height="37px" viewBox="0 0 35 37" version="1.1" xmlns="http://www.w3.org/2000/svg" xmlns:xlink="http://www.w3.org/1999/xlink">
    <!-- Generator: Sketch 47.1 (45422) - http://www.bohemiancoding.com/sketch -->
    <title>icon-bi</title>
    <desc>Created with Sketch.</desc>
    <defs></defs>
    <g id="Page-1" stroke="none" stroke-width="1" fill="none" fill-rule="evenodd" stroke-linecap="round" stroke-linejoin="round">
        <g id="Desktop" transform="translate(-80.000000, -530.000000)" stroke="#F57A23" stroke-width="1.792">
            <g transform="translate(-1.000000, -2.000000)" id="services">
                <g transform="translate(1.000000, 482.000000)">
                    <g id="Group-2" transform="translate(81.000000, 49.000000)">
                        <path d="M23.6410278,19.4375 C23.6410278,9.8075 20.3430278,2 16.2743612,2 C12.2056945,2 8.9076945,9.8075 8.9076945,19.4375 C8.9076945,29.0675 12.2056945,36.875 16.2743612,36.875 C20.3430278,36.875 23.6410278,29.0675 23.6410278,19.4375 L23.6410278,19.4375 Z M12.5910278,13.104875 C4.1884945,17.919875 -1.62663883,24.658625 0.407694502,28.15625 C2.44202784,31.653875 11.5551612,30.585125 19.9576945,25.770125 C28.3602278,20.955125 34.1753612,14.216375 32.1410278,10.71875 C30.1066945,7.221125 20.9935612,8.289875 12.5910278,13.104875 L12.5910278,13.104875 Z M12.5910278,25.770125 C20.9935612,30.585125 30.1066945,31.653875 32.1410278,28.15625 C34.1753612,24.658625 28.3602278,17.919875 19.9576945,13.104875 C11.5551612,8.289875 2.44202784,7.221125 0.407694502,10.71875 C-1.62663883,14.216375 4.1884945,20.955125 12.5910278,25.770125 L12.5910278,25.770125 Z M18.5410278,19.4375 C18.5410278,20.680625 17.5255612,21.6875 16.2743612,21.6875 C15.0220278,21.6875 14.0076945,20.680625 14.0076945,19.4375 C14.0076945,18.1955 15.0220278,17.1875 16.2743612,17.1875 C17.5255612,17.1875 18.5410278,18.1955 18.5410278,19.4375 L18.5410278,19.4375 Z" id="icon-bi"></path>
                    </g>
                </g>
            </g>
        </g>
    </g>
</svg>