<?xml version="1.0" encoding="UTF-8"?>
<svg width="26px" height="38px" viewBox="0 0 26 38" version="1.1" xmlns="http://www.w3.org/2000/svg" xmlns:xlink="http://www.w3.org/1999/xlink">
    <!-- Generator: Sketch 47.1 (45422) - http://www.bohemiancoding.com/sketch -->
    <title>icon-ba</title>
    <desc>Created with Sketch.</desc>
    <defs></defs>
    <g id="Page-1" stroke="none" stroke-width="1" fill="none" fill-rule="evenodd" stroke-linecap="round" stroke-linejoin="round">
        <g id="Desktop" transform="translate(-682.000000, -529.000000)" stroke="#F57A23" stroke-width="1.792">
            <g transform="translate(-1.000000, -2.000000)" id="services">
                <g transform="translate(1.000000, 482.000000)">
                    <g id="Group-2" transform="translate(81.000000, 49.000000)">
                        <g id="BA" transform="translate(602.000000, 1.000000)">
                            <path d="M11.4352273,25.4375 L16.2022727,26.5787188 C16.2022727,26.5787188 17.0488636,26.8828125 17.0488636,25.8236875 C17.0488636,25.8236875 17.0409091,26.2630625 17.0488636,25.7311875 C17.0659091,24.4581563 17.2840909,23.8823438 19.5477273,21.390625 C19.5522727,21.3848438 19.5568182,21.3964063 19.5613636,21.390625 C21.5909091,19.65625 23.8636364,16.9101563 23.8636364,12.140625 C23.8636364,4.76953125 17.9454545,0 11.9318182,0 C5.82386364,0 0,4.9140625 0,12.140625 C0,16.765625 2.27272727,19.65625 4.30227273,21.390625 C4.30681818,21.3964063 4.31136364,21.3848438 4.31590909,21.390625 C6.57954545,23.8823438 6.79659091,24.4581563 6.81477273,25.7311875 C6.82272727,26.2630625 6.81477273,26.3451563 6.81477273,26.3451563 C6.81477273,26.9718438 6.68181818,27.5303125 7.38636364,27.75 L16.5840909,29.8092813 M7.38636364,30.8556875 L16.4772727,32.953125 M7.95454545,34.1579375 L15.3409091,35.84375" id="icon-ba"></path>
                        </g>
                    </g>
                </g>
            </g>
        </g>
    </g>
</svg>