<?xml version="1.0" encoding="UTF-8"?>
<svg width="19px" height="16px" viewBox="0 0 19 16" version="1.1" xmlns="http://www.w3.org/2000/svg" xmlns:xlink="http://www.w3.org/1999/xlink">
    <!-- Generator: Sketch 47.1 (45422) - http://www.bohemiancoding.com/sketch -->
    <title>icon-g+</title>
    <desc>Created with Sketch.</desc>
    <defs></defs>
    <g id="Page-1" stroke="none" stroke-width="1" fill="none" fill-rule="evenodd">
        <g id="Desktop" transform="translate(-938.000000, -3293.000000)" fill="#4F4E4E">
            <g transform="translate(-1.000000, -2.000000)" id="footer">
                <g transform="translate(1.000000, 3265.000000)">
                    <path d="M952.35689,30.1922476 L953.396422,30.1922476 L953.396422,33.1602884 L956.376524,33.1602884 L956.376524,34.1961796 L953.396422,34.1961796 L953.396422,37.1642204 L952.35689,37.1642204 L952.35689,34.1961796 L949.376366,34.1961796 L949.376366,33.1602884 L952.35689,33.1602884 L952.35689,30.1922476 Z M945.223096,35.2564225 C945.172006,35.5356884 945.058004,35.8094867 944.880245,36.0748733 C944.510793,36.4500317 944.050562,36.6477048 943.497018,36.6683133 C943.059165,36.6683133 942.669869,36.5354096 942.329551,36.2691818 C941.989655,36.0033745 941.711405,35.6795271 941.496068,35.2976395 C941.051037,34.4791887 940.828944,33.6914403 940.828944,32.9343943 C940.815433,32.3615628 940.967435,31.8429864 941.285375,31.3790854 C941.663271,30.9362135 942.136169,30.7074174 942.70618,30.6931176 C943.136855,30.7074174 943.517285,30.8331711 943.848314,31.0724818 C944.173009,31.3239893 944.434792,31.6520425 944.633662,32.0541181 C945.057159,32.8927568 945.268275,33.7255073 945.268275,34.5502669 C945.268275,34.7412107 945.253497,34.9767361 945.223096,35.2564225 Z M945.904998,41.4158327 C946.252494,41.8099171 946.427297,42.2725563 946.427297,42.8037503 C946.427297,43.4577539 946.172692,43.9918919 945.664327,44.4070054 C945.142872,44.8292688 944.386658,45.0471298 943.396527,45.0614296 C942.292395,45.0471298 941.422178,44.801931 940.786299,44.3254127 C940.117063,43.8488943 939.783079,43.2432575 939.783079,42.5076612 C939.783079,42.1337646 939.860347,41.8132818 940.014039,41.5474745 C940.147464,41.2955465 940.311712,41.0844147 940.505515,40.9145 C940.706497,40.7513145 940.903679,40.6255608 941.097905,40.5372387 C941.291708,40.4552254 941.442445,40.3942412 941.549691,40.3526036 C942.004433,40.216756 942.449042,40.11834 942.884362,40.0573557 C943.326015,40.0161388 943.600464,40.0026802 943.707289,40.0161388 C943.888003,40.0161388 944.045073,40.0228681 944.17892,40.0367472 C944.961735,40.5813998 945.537235,41.0410949 945.904998,41.4158327 L945.904998,41.4158327 Z M948.208687,30 L944.006228,30 C943.449306,30 942.851428,30.0647695 942.213437,30.1943085 C941.570381,30.3440353 940.948857,30.6645181 940.351824,31.1544951 C939.481607,31.9910309 939.046709,32.9234592 939.046709,33.9509388 C939.046709,34.8017744 939.354093,35.5466235 939.968016,36.1867479 C940.554072,36.8739774 941.406977,37.2243215 942.525044,37.2382006 C942.736581,37.2382006 942.962052,37.2243215 943.201034,37.1974043 C943.160923,37.3071759 943.118277,37.4262004 943.072254,37.5565805 C943.019475,37.6798108 942.993297,37.834164 942.993297,38.0183786 C942.993297,38.3266645 943.062543,38.5899483 943.201034,38.8086504 C943.319259,39.0345025 943.454373,39.2473165 943.605953,39.4458308 C943.115322,39.45971 942.500132,39.5198531 941.757429,39.6287836 C941.008814,39.757902 940.293978,40.0157182 939.61292,40.403494 C939.00702,40.7635114 938.588167,41.181569 938.356785,41.656405 C938.119491,42.1325028 938,42.5635985 938,42.9513742 C938,43.7458519 938.366496,44.4288756 939.098221,44.9996042 C939.824458,45.6107085 940.923524,45.9232002 942.395419,45.9375 C944.153586,45.9093211 945.498812,45.4904223 946.431097,44.6812243 C947.330448,43.8985229 947.780124,42.9993205 947.780124,41.9861406 C947.767457,41.2707322 947.603209,40.6924332 947.288647,40.2504024 C946.955085,39.8146804 946.566633,39.4168107 946.123714,39.055111 L945.410566,38.4734473 C945.307542,38.3708255 945.20114,38.2526422 945.092205,38.116374 C944.964269,37.9729558 944.899667,37.7929471 944.899667,37.5759273 C944.899667,37.3509164 944.962158,37.1536638 945.087982,36.9833285 C945.194384,36.8193019 945.310075,36.6729396 945.435056,36.5442418 C945.654193,36.353298 945.860664,36.1657188 946.05489,35.9823455 C946.230116,35.7989721 946.39563,35.5979344 946.552277,35.3800734 C946.871906,34.9304722 947.037842,34.3319853 947.050509,33.5829303 C947.050509,33.1741255 947.004064,32.8174728 946.911596,32.5112897 C946.799704,32.2046861 946.670924,31.9388788 946.525677,31.7147091 C946.374096,31.4762396 946.218715,31.2752019 946.060801,31.1120164 C945.895709,30.9551397 945.747084,30.8365358 945.61577,30.7545225 L946.910329,30.7545225 L948.208687,30 Z" id="icon-g+"></path>
                </g>
            </g>
        </g>
    </g>
</svg>