<?xml version="1.0" encoding="UTF-8"?>
<svg width="20px" height="16px" viewBox="0 0 20 16" version="1.1" xmlns="http://www.w3.org/2000/svg" xmlns:xlink="http://www.w3.org/1999/xlink">
    <!-- Generator: Sketch 47.1 (45422) - http://www.bohemiancoding.com/sketch -->
    <title>icon-twitter</title>
    <desc>Created with Sketch.</desc>
    <defs></defs>
    <g id="Page-1" stroke="none" stroke-width="1" fill="none" fill-rule="evenodd">
        <g id="Desktop" transform="translate(-849.000000, -3293.000000)" fill="#4F4E4E">
            <g transform="translate(-1.000000, -2.000000)" id="footer">
                <g transform="translate(1.000000, 3265.000000)">
                    <path d="M866.368071,32.5199773 C867.202074,32.0218352 867.842343,31.2334658 868.144114,30.2938856 C867.363671,30.7551396 866.499063,31.0898765 865.579058,31.2703539 C864.842075,30.4883866 863.792609,30 862.63082,30 C860.399977,30 858.591492,31.801421 858.591492,34.0232447 C858.591492,34.3384705 858.626994,34.64577 858.695857,34.9402653 C855.339034,34.7722871 852.362944,33.1705498 850.370519,30.7365431 C850.023145,31.3304115 849.823597,32.0215303 849.823597,32.758988 C849.823597,34.1546396 850.536708,35.3862763 851.620452,36.1078812 C850.958453,36.0868458 850.335629,35.9060635 849.791155,35.6045564 C849.790849,35.6213237 849.790849,35.6383959 849.790849,35.6551633 C849.790849,37.6047465 851.183404,39.2308727 853.030759,39.6003637 C852.691648,39.6924316 852.334787,39.741819 851.966602,39.741819 C851.70676,39.741819 851.453346,39.7165156 851.20697,39.6692622 C851.720533,41.2679509 853.212556,42.4309939 854.98003,42.4633091 C853.597575,43.5425155 851.856115,44.1857713 849.963465,44.1857713 C849.637515,44.1857713 849.31585,44.1668699 849,44.1293721 C850.787368,45.2710748 852.910479,45.9375 855.191515,45.9375 C862.621332,45.9375 866.684227,39.8067543 866.684227,34.4896814 C866.684227,34.3153011 866.680248,34.1418355 866.672597,33.9692844 C867.461609,33.4019389 868.146257,32.6931381 868.687976,31.8864771 C867.963541,32.2065807 867.18524,32.4227268 866.368071,32.5199773 Z" id="icon-twitter"></path>
                </g>
            </g>
        </g>
    </g>
</svg>